<svg width="1136" height="175" viewBox="0 0 1136 175" fill="none" xmlns="http://www.w3.org/2000/svg">
<path d="M9.62305 7.6H41.638C55.0014 7.6 66.0214 10.2917 74.698 15.675C83.3747 20.995 89.8347 28.3733 94.078 37.81C98.3214 47.2467 100.443 58.045 100.443 70.205C100.443 82.4283 98.3214 93.2583 94.078 102.695C89.898 112.132 83.4697 119.542 74.793 124.925C66.1164 130.308 55.0647 133 41.638 133H9.62305V7.6ZM29.478 25.65V114.95H39.928C48.9847 114.95 56.3947 113.05 62.1581 109.25C67.9847 105.387 72.2914 100.098 75.0781 93.385C77.8647 86.6717 79.2897 79.0083 79.3531 70.395C79.4164 61.7817 78.0547 54.1183 75.268 47.405C72.4814 40.6283 68.1431 35.3083 62.2531 31.445C56.4264 27.5817 48.9847 25.65 39.928 25.65H29.478ZM121.077 133V55.005H141.312V133H121.077ZM131.432 31.635C128.012 31.635 125.067 30.4 122.597 27.93C120.191 25.46 118.987 22.515 118.987 19.095C118.987 15.675 120.191 12.73 122.597 10.26C125.067 7.72666 128.012 6.46 131.432 6.46C133.712 6.46 135.802 7.06166 137.702 8.26499C139.666 9.40499 141.217 10.925 142.357 12.825C143.561 14.6617 144.162 16.7517 144.162 19.095C144.162 22.515 142.927 25.46 140.457 27.93C137.987 30.4 134.979 31.635 131.432 31.635ZM203.396 174.705C197.443 174.705 191.901 174.103 186.771 172.9C181.705 171.76 177.176 170.018 173.186 167.675C169.196 165.395 165.966 162.577 163.496 159.22L176.131 146.68C177.461 148.327 179.171 150.037 181.261 151.81C183.351 153.647 186.106 155.167 189.526 156.37C192.946 157.637 197.285 158.27 202.541 158.27C207.671 158.27 212.041 157.225 215.651 155.135C219.325 153.045 222.111 150.163 224.011 146.49C225.975 142.88 226.956 138.7 226.956 133.95V131.575H246.906V135.185C246.906 143.798 244.975 151.018 241.111 156.845C237.248 162.735 232.023 167.168 225.436 170.145C218.85 173.185 211.503 174.705 203.396 174.705ZM226.956 133V118.56C226.45 120.08 224.993 122.17 222.586 124.83C220.243 127.49 217.013 129.897 212.896 132.05C208.843 134.203 204.03 135.28 198.456 135.28C191.173 135.28 184.618 133.538 178.791 130.055C172.965 126.572 168.373 121.727 165.016 115.52C161.66 109.313 159.981 102.157 159.981 94.05C159.981 85.9433 161.66 78.7867 165.016 72.58C168.373 66.3733 172.965 61.5283 178.791 58.045C184.618 54.4983 191.173 52.725 198.456 52.725C203.903 52.725 208.621 53.675 212.611 55.575C216.601 57.475 219.8 59.66 222.206 62.13C224.676 64.6 226.196 66.7533 226.766 68.59V55.005H246.906V133H226.956ZM180.026 94.05C180.026 99.0533 181.135 103.423 183.351 107.16C185.568 110.897 188.45 113.778 191.996 115.805C195.606 117.832 199.47 118.845 203.586 118.845C208.02 118.845 211.946 117.8 215.366 115.71C218.85 113.62 221.573 110.738 223.536 107.065C225.563 103.328 226.576 98.99 226.576 94.05C226.576 89.11 225.563 84.8033 223.536 81.13C221.573 77.3933 218.85 74.48 215.366 72.39C211.946 70.2367 208.02 69.16 203.586 69.16C199.47 69.16 195.606 70.205 191.996 72.295C188.45 74.3217 185.568 77.2033 183.351 80.94C181.135 84.6767 180.026 89.0467 180.026 94.05ZM270.071 133V55.005H290.306V133H270.071ZM280.426 31.635C277.006 31.635 274.061 30.4 271.591 27.93C269.185 25.46 267.981 22.515 267.981 19.095C267.981 15.675 269.185 12.73 271.591 10.26C274.061 7.72666 277.006 6.46 280.426 6.46C282.706 6.46 284.796 7.06166 286.696 8.26499C288.66 9.40499 290.211 10.925 291.351 12.825C292.555 14.6617 293.156 16.7517 293.156 19.095C293.156 22.515 291.921 25.46 289.451 27.93C286.981 30.4 283.973 31.635 280.426 31.635ZM307.36 55.005H321.99V22.99H342.13V55.005H361.415V72.105H342.13V105.45C342.13 109.63 342.827 112.765 344.22 114.855C345.677 116.945 347.735 117.99 350.395 117.99C352.612 117.99 354.354 117.578 355.62 116.755C356.95 115.932 357.742 115.362 357.995 115.045L365.5 129.77C365.12 130.15 364.012 130.783 362.175 131.67C360.339 132.557 357.964 133.38 355.05 134.14C352.137 134.9 348.812 135.28 345.075 135.28C338.489 135.28 332.979 133.317 328.545 129.39C324.175 125.463 321.99 119.32 321.99 110.96V72.105H307.36V55.005ZM440.706 133V118.56C440.2 120.08 438.743 122.17 436.336 124.83C433.993 127.49 430.763 129.897 426.646 132.05C422.593 134.203 417.78 135.28 412.206 135.28C404.923 135.28 398.368 133.538 392.541 130.055C386.715 126.572 382.123 121.727 378.766 115.52C375.41 109.313 373.731 102.157 373.731 94.05C373.731 85.9433 375.41 78.7867 378.766 72.58C382.123 66.3733 386.715 61.5283 392.541 58.045C398.368 54.4983 404.923 52.725 412.206 52.725C417.653 52.725 422.371 53.675 426.361 55.575C430.351 57.475 433.55 59.66 435.956 62.13C438.426 64.6 439.946 66.7533 440.516 68.59V55.005H460.656V133H440.706ZM393.776 94.05C393.776 99.0533 394.885 103.423 397.101 107.16C399.318 110.897 402.2 113.778 405.746 115.805C409.356 117.832 413.22 118.845 417.336 118.845C421.77 118.845 425.696 117.8 429.116 115.71C432.6 113.62 435.323 110.738 437.286 107.065C439.313 103.328 440.326 98.99 440.326 94.05C440.326 89.11 439.313 84.8033 437.286 81.13C435.323 77.3933 432.6 74.48 429.116 72.39C425.696 70.2367 421.77 69.16 417.336 69.16C413.22 69.16 409.356 70.205 405.746 72.295C402.2 74.3217 399.318 77.2033 397.101 80.94C394.885 84.6767 393.776 89.0467 393.776 94.05ZM502.269 133H481.844V2.28H502.269V133ZM517.486 55.005H532.496V33.345C532.496 25.555 533.952 19.2217 536.866 14.345C539.779 9.405 543.484 5.795 547.981 3.515C552.541 1.17166 557.227 -9.05991e-06 562.041 -9.05991e-06C567.931 -9.05991e-06 572.427 0.823325 575.531 2.46999C578.697 4.05332 580.629 5.16166 581.326 5.79499L573.346 20.995C572.966 20.615 572.016 19.95 570.496 19C568.976 17.9867 566.917 17.48 564.321 17.48C562.421 17.48 560.584 17.9233 558.811 18.81C557.101 19.6967 555.644 21.4383 554.441 24.035C553.237 26.6317 552.636 30.4317 552.636 35.435V55.005H574.011V72.105H552.636V133H532.496V72.105H517.486V55.005ZM625.208 135.28C617.038 135.28 609.755 133.507 603.358 129.96C597.025 126.35 592.053 121.473 588.443 115.33C584.833 109.123 583.028 102.093 583.028 94.24C583.028 86.3867 584.833 79.325 588.443 73.055C592.053 66.785 597.025 61.845 603.358 58.235C609.755 54.5617 617.038 52.725 625.208 52.725C633.378 52.725 640.598 54.5617 646.868 58.235C653.138 61.845 658.047 66.785 661.593 73.055C665.203 79.325 667.008 86.3867 667.008 94.24C667.008 102.093 665.203 109.123 661.593 115.33C658.047 121.473 653.138 126.35 646.868 129.96C640.598 133.507 633.378 135.28 625.208 135.28ZM625.208 118.18C629.768 118.18 633.727 117.135 637.083 115.045C640.44 112.955 643.037 110.105 644.873 106.495C646.71 102.885 647.628 98.7683 647.628 94.145C647.628 89.5217 646.71 85.405 644.873 81.795C643.037 78.1217 640.44 75.2083 637.083 73.055C633.727 70.9017 629.768 69.825 625.208 69.825C620.648 69.825 616.658 70.9017 613.238 73.055C609.882 75.2083 607.253 78.1217 605.353 81.795C603.517 85.405 602.598 89.5217 602.598 94.145C602.598 98.7683 603.517 102.885 605.353 106.495C607.253 110.105 609.882 112.955 613.238 115.045C616.658 117.135 620.648 118.18 625.208 118.18ZM703.461 133H683.226V55.005H703.461V68.02H702.986C703.43 66.4367 704.633 64.4733 706.596 62.13C708.623 59.7233 711.41 57.57 714.956 55.67C718.503 53.7067 722.778 52.725 727.781 52.725C731.391 52.725 734.621 53.2317 737.471 54.245C740.321 55.2583 742.348 56.2717 743.551 57.285L735.381 74.005C734.558 72.9917 733.006 72.01 730.726 71.06C728.51 70.0467 725.755 69.54 722.461 69.54C718.345 69.54 714.861 70.7433 712.011 73.15C709.225 75.5567 707.103 78.4383 705.646 81.795C704.19 85.1517 703.461 88.2867 703.461 91.2V133ZM790.467 174.705C784.513 174.705 778.972 174.103 773.842 172.9C768.775 171.76 764.247 170.018 760.257 167.675C756.267 165.395 753.037 162.577 750.567 159.22L763.202 146.68C764.532 148.327 766.242 150.037 768.332 151.81C770.422 153.647 773.177 155.167 776.597 156.37C780.017 157.637 784.355 158.27 789.612 158.27C794.742 158.27 799.112 157.225 802.722 155.135C806.395 153.045 809.182 150.163 811.082 146.49C813.045 142.88 814.027 138.7 814.027 133.95V131.575H833.977V135.185C833.977 143.798 832.045 151.018 828.182 156.845C824.318 162.735 819.093 167.168 812.507 170.145C805.92 173.185 798.573 174.705 790.467 174.705ZM814.027 133V118.56C813.52 120.08 812.063 122.17 809.657 124.83C807.313 127.49 804.083 129.897 799.967 132.05C795.913 134.203 791.1 135.28 785.527 135.28C778.243 135.28 771.688 133.538 765.862 130.055C760.035 126.572 755.443 121.727 752.087 115.52C748.73 109.313 747.052 102.157 747.052 94.05C747.052 85.9433 748.73 78.7867 752.087 72.58C755.443 66.3733 760.035 61.5283 765.862 58.045C771.688 54.4983 778.243 52.725 785.527 52.725C790.973 52.725 795.692 53.675 799.682 55.575C803.672 57.475 806.87 59.66 809.277 62.13C811.747 64.6 813.267 66.7533 813.837 68.59V55.005H833.977V133H814.027ZM767.097 94.05C767.097 99.0533 768.205 103.423 770.422 107.16C772.638 110.897 775.52 113.778 779.067 115.805C782.677 117.832 786.54 118.845 790.657 118.845C795.09 118.845 799.017 117.8 802.437 115.71C805.92 113.62 808.643 110.738 810.607 107.065C812.633 103.328 813.647 98.99 813.647 94.05C813.647 89.11 812.633 84.8033 810.607 81.13C808.643 77.3933 805.92 74.48 802.437 72.39C799.017 70.2367 795.09 69.16 790.657 69.16C786.54 69.16 782.677 70.205 779.067 72.295C775.52 74.3217 772.638 77.2033 770.422 80.94C768.205 84.6767 767.097 89.0467 767.097 94.05ZM869.587 98.8C869.713 102.917 870.695 106.622 872.532 109.915C874.368 113.208 877.06 115.805 880.607 117.705C884.217 119.542 888.618 120.46 893.812 120.46C898.308 120.46 902.172 119.858 905.402 118.655C908.695 117.388 911.418 115.9 913.572 114.19C915.725 112.417 917.308 110.77 918.322 109.25L927.347 121.505C925.383 124.165 922.913 126.54 919.937 128.63C916.96 130.72 913.255 132.335 908.822 133.475C904.452 134.678 899.037 135.28 892.577 135.28C884.09 135.28 876.712 133.538 870.442 130.055C864.172 126.572 859.295 121.663 855.812 115.33C852.392 108.997 850.682 101.587 850.682 93.1C850.682 85.5 852.265 78.66 855.432 72.58C858.598 66.4367 863.19 61.5917 869.207 58.045C875.287 54.4983 882.57 52.725 891.057 52.725C898.973 52.725 905.845 54.3083 911.672 57.475C917.498 60.6417 921.995 65.2017 925.162 71.155C928.392 77.045 930.007 84.17 930.007 92.53C930.007 93.0367 929.975 94.0817 929.912 95.665C929.912 97.2483 929.848 98.2933 929.722 98.8H869.587ZM911.007 83.98C910.943 81.9533 910.247 79.6417 908.917 77.045C907.65 74.4483 905.592 72.2 902.742 70.3C899.892 68.3367 896.092 67.355 891.342 67.355C886.465 67.355 882.507 68.305 879.467 70.205C876.427 72.0417 874.178 74.2583 872.722 76.855C871.265 79.3883 870.41 81.7633 870.157 83.98H911.007Z" fill="white"/>
<path d="M965.93 135.28C961.686 135.28 958.045 133.76 955.005 130.72C951.965 127.68 950.445 124.038 950.445 119.795C950.445 115.425 951.965 111.72 955.005 108.68C958.045 105.64 961.686 104.12 965.93 104.12C970.3 104.12 973.973 105.64 976.95 108.68C979.99 111.72 981.51 115.425 981.51 119.795C981.51 124.038 979.99 127.68 976.95 130.72C973.973 133.76 970.3 135.28 965.93 135.28Z" fill="#8D9DD3"/>
<path d="M1071.13 133V116.66C1070.68 118.37 1069.19 120.713 1066.66 123.69C1064.19 126.667 1060.74 129.358 1056.31 131.765C1051.94 134.108 1046.74 135.28 1040.73 135.28C1033.7 135.28 1027.2 133.665 1021.25 130.435C1015.36 127.142 1010.61 122.423 1007 116.28C1003.45 110.073 1001.68 102.663 1001.68 94.05C1001.68 85.4367 1003.45 78.0583 1007 71.915C1010.61 65.7083 1015.36 60.9583 1021.25 57.665C1027.2 54.3717 1033.7 52.725 1040.73 52.725C1046.74 52.725 1051.94 53.865 1056.31 56.145C1060.68 58.3617 1064.13 60.9267 1066.66 63.84C1069.26 66.7533 1070.71 69.1917 1071.03 71.155V55.005H1081.67V133H1071.13ZM1012.42 94.05C1012.42 100.637 1013.84 106.305 1016.69 111.055C1019.54 115.805 1023.21 119.447 1027.71 121.98C1032.27 124.513 1037.05 125.78 1042.06 125.78C1047.57 125.78 1052.47 124.482 1056.78 121.885C1061.09 119.288 1064.48 115.615 1066.95 110.865C1069.48 106.115 1070.75 100.51 1070.75 94.05C1070.75 87.59 1069.48 81.985 1066.95 77.235C1064.48 72.485 1061.09 68.8117 1056.78 66.215C1052.47 63.555 1047.57 62.225 1042.06 62.225C1037.05 62.225 1032.27 63.5233 1027.71 66.12C1023.21 68.6533 1019.54 72.295 1016.69 77.045C1013.84 81.795 1012.42 87.4633 1012.42 94.05ZM1107.82 133V55.005H1118.55V133H1107.82ZM1113.33 23.37C1111.05 23.37 1109.08 22.5783 1107.44 20.995C1105.85 19.3483 1105.06 17.385 1105.06 15.105C1105.06 12.7617 1105.88 10.7983 1107.53 9.21499C1109.18 7.56832 1111.11 6.74499 1113.33 6.74499C1114.85 6.74499 1116.24 7.12499 1117.51 7.885C1118.84 8.64499 1119.88 9.65833 1120.64 10.925C1121.46 12.1283 1121.88 13.5217 1121.88 15.105C1121.88 17.385 1121.02 19.3483 1119.31 20.995C1117.66 22.5783 1115.67 23.37 1113.33 23.37Z" fill="white"/>
</svg>
